<?xml version="1.0" encoding="UTF-8"?>
<svg id="Layer_2" data-name="Layer 2" xmlns="http://www.w3.org/2000/svg" viewBox="0 0 915.93 104.18">
  <defs>
    <style>
      .cls-1 {
        fill: #454545;
      }

      .cls-1, .cls-2 {
        stroke-width: 0px;
      }

      .cls-2 {
        fill: #fff;
      }
    </style>
  </defs>
  <g id="Layer_1-2" data-name="Layer 1">
    <g>
      <path class="cls-2" d="M546.68,102.47c-6.51,0-12.66.18-18.79-.15-1.23-.07-2.94-1.82-3.44-3.16-3.2-8.53-6.16-17.15-9.14-25.76-2.48-7.17-2.45-7.19-10.94-6.55v35.38h-20.71V2.59c13.53,0,27.21-1.06,40.64.32,12.05,1.24,18.28,10.41,19.56,22.02.77,7.02.77,14.44-.69,21.29-1.06,4.98-4.75,9.59-7.94,13.86-1.48,1.97-2.15,3.04-1.25,5.5,4.03,11.04,7.77,22.18,11.6,33.29.36,1.06.66,2.14,1.11,3.61ZM504.25,19.38v29.03c6.79-.63,14.11,2.42,18.05-4.9,3.4-6.31,3.29-13.38-.26-19.52-3.92-6.8-11.06-4.21-17.8-4.6Z"/>
      <path class="cls-2" d="M404.93,51.71c.41-8.8.26-17.67,1.37-26.38,1.86-14.61,12.37-23.92,27.26-24.9,10.68-.71,20.5,1.37,28.13,9.73,4.86,5.32,6.98,11.82,7.08,18.69.22,16.13.69,32.33-.46,48.39-1.48,20.64-17.07,28.67-35.36,26.64-17.93-1.99-27.03-12.68-27.57-31.16-.2-6.99-.03-13.99-.03-20.99-.14,0-.28-.01-.42-.02ZM426.17,51.34s-.02,0-.03,0c0,7.97-.24,15.96.07,23.92.28,6.94,4.03,10.13,10.88,10.1,6.96-.03,10.91-3.53,11.21-10.5.29-6.8.19-13.62.19-20.43,0-8.64.16-17.29-.23-25.91-.28-6.24-5.13-10.18-11.37-10.08-6.68.11-10.47,3.63-10.67,10.48-.22,7.47-.05,14.95-.05,22.43Z"/>
      <path class="cls-2" d="M764.62,2.07c7.81,33.66,15.55,66.97,23.42,100.84-6.54,0-12.67.15-18.78-.14-1.06-.05-2.6-1.81-2.94-3.05-1.32-4.78-2.06-9.72-3.43-14.49-.39-1.35-2.1-3.24-3.28-3.3-6.61-.32-13.25-.15-20.02-.15-1.25,6.07-2.51,11.7-3.52,17.37-.48,2.72-1.5,3.98-4.53,3.84-5.6-.25-11.23-.07-17.25-.07,4.45-19.24,8.75-37.93,13.11-56.61,3.16-13.55,6.34-27.09,9.69-40.59.34-1.37,1.9-3.44,2.95-3.48,8.13-.29,16.27-.16,24.58-.16ZM750.84,26.42c-2.56,12.56-5.08,24.91-7.62,37.31h15.58c-2.68-12.58-5.29-24.81-7.96-37.31Z"/>
      <path class="cls-2" d="M261.86,102.31h-21.2c-1.56-6.67-3.12-13.37-4.77-20.43h-22.38c-1.45,6.52-2.98,13.37-4.54,20.4h-20.4c7.74-33.33,15.44-66.45,23.21-99.92,8.35,0,16.49-.11,24.61.14,1.01.03,2.57,1.76,2.85,2.95,6.43,27.05,12.73,54.13,19.04,81.21,1.19,5.12,2.35,10.26,3.58,15.65ZM224.84,27c-2.49,12.04-5.02,24.29-7.59,36.71h15.43c-2.68-12.56-5.29-24.76-7.84-36.71Z"/>
      <path class="cls-2" d="M851.98,32.04h-19.14c-.23-1.59-.47-3.05-.65-4.51-1.01-8.13-5.02-11.02-12.98-9.35-5.04,1.06-8.02,7.07-5.55,12.86,1.29,3.02,3.79,5.94,6.5,7.85,6.77,4.78,14.14,8.72,20.97,13.44,11.02,7.62,14.86,19.93,10.78,33.04-3.33,10.71-14.53,18.64-26.87,18.62-4.45,0-9.05-.32-13.3-1.49-13.99-3.84-21.4-15.61-19.62-30.75h18.45c.15,1.05.32,1.99.4,2.94.86,9.53,8.09,13.9,16.99,10.27,6.07-2.47,7.54-11.53,2.38-16.97-2.34-2.46-5.53-4.16-8.45-6.03-6.7-4.3-13.69-8.18-20.14-12.81-10.69-7.66-11.83-19.2-8.36-31.44,2.84-10.03,13.01-16.86,24.87-17.62,16.7-1.07,29.28,7.01,32.41,21.04.76,3.39.86,6.92,1.32,10.91Z"/>
      <path class="cls-2" d="M328.9,36.12h-19.1c-.44-3.81-.62-7.43-1.32-10.96-1.03-5.18-4.99-6.64-9.67-6.79-4.82-.15-8.31,1.89-10.18,6.45-.13.3-.27.64-.27.96,0,17.43-.34,34.87.21,52.28.16,5.28,5.19,7.64,11.78,7.3,5.11-.26,8.12-3.2,8.83-8.98.28-2.27.05-4.59.05-7.15h19.28c3.26,22.82-10.82,36.83-33.31,34.68-18.42-1.76-27.56-12.14-27.75-30.71-.17-16.13-.45-32.33.77-48.39,1.49-19.74,20.59-26.69,35.33-23.97,18.7,3.44,26.53,14.46,25.36,35.29Z"/>
      <path class="cls-2" d="M656.39,2.29h49.78v17.5h-29.39v23.53h25.19v17.63h-25.22v24.12h29.73v17.32h-50.09V2.29Z"/>
      <path class="cls-2" d="M594.26,102.39h-20.96c0-3.81-.31-7.6.05-11.32,1.74-17.64-2.07-34.05-9.48-50.07-5.82-12.56-10.39-25.7-15.75-39.16,6.8,0,13.11-.21,19.37.18,1.28.08,2.98,2.21,3.55,3.75,4.24,11.3,8.24,22.69,12.69,35.1,4.43-12.29,8.6-23.52,12.47-34.85,1.06-3.11,2.31-4.58,5.88-4.33,5.27.38,10.59.1,16.62.1-1.95,5.18-3.69,9.92-5.51,14.65-5.66,14.67-11.44,29.3-16.93,44.03-1.18,3.17-1.83,6.7-1.91,10.09-.24,10.45-.09,20.9-.09,31.83Z"/>
      <path class="cls-2" d="M138.68,2.58h49.47v17.37h-29.2v24.11h25.21v17.2h-25.37v40.96h-20.11V2.58Z"/>
      <path class="cls-2" d="M915.93,19.9h-18.4v82.69h-20.12V19.92h-19.11V2.08h57.63v17.82Z"/>
      <path class="cls-2" d="M357.35,19.76h-19.84V2.22h58.52v17.62h-19.03v82.31h-19.65V19.76Z"/>
      <g>
        <path class="cls-2" d="M9.47,61.78c2.22-10.41,4.32-20.31,6.44-30.21,1.88-8.79,3.83-17.56,5.63-26.37.37-1.79.96-2.57,2.93-2.56,28.13.06,56.25.04,84.38.05.47,0,.94.06,1.78.11-.38,1.96-.71,3.79-1.09,5.6-1.5,7.01-3.12,14-4.46,21.04-.44,2.32-1.43,2.83-3.62,2.82-17.7-.08-35.4,0-53.09-.11-2.42-.02-3.28.71-3.73,3.03-1.6,8.16-3.39,16.29-5.24,24.4-.19.84-1.27,2.09-1.95,2.1-9.17.14-18.34.09-27.96.09Z"/>
        <path class="cls-1" d="M80.18,76.35h-29.5c1.09-5.17,2.11-10.1,3.16-15.01.88-4.11,1.69-8.24,2.74-12.3.21-.81,1.33-1.97,2.05-1.98,8.98-.12,17.96-.06,26.94-.03.16,0,.33.17.8.44-2.05,9.56-4.12,19.23-6.19,28.88Z"/>
        <path class="cls-2" d="M29.5,103.99H0c1.09-5.17,2.11-10.1,3.16-15.01.88-4.11,1.69-8.24,2.74-12.3.21-.81,1.33-1.97,2.05-1.98,8.98-.12,17.96-.06,26.94-.03.16,0,.33.17.8.44-2.05,9.56-4.12,19.23-6.19,28.88Z"/>
      </g>
    </g>
  </g>
</svg>